<svg width="53" height="56" viewBox="0 0 53 56" fill="none" xmlns="http://www.w3.org/2000/svg">
<g clip-path="url(#clip0_2_24)">
<path d="M50.7914 23.0019L29.1347 2.07845C29.0621 2.00949 28.975 1.95029 28.8768 1.90495C27.4908 0.732005 25.5763 0.786582 24.2392 2.07845L2.58226 22.9995C1.02997 24.498 0.833991 27.1572 2.14793 28.9291C2.97836 30.0499 4.35585 30.0355 5.41221 29.798V52.2887C5.41221 53.9864 6.63436 55.3687 8.1377 55.3687H21.1836C21.7713 55.3687 22.2485 54.8366 22.2485 54.1814V34.5666H31.1276V54.1814C31.1276 54.8366 31.6045 55.3687 32.192 55.3687H45.2381C46.7415 55.3687 47.9636 53.9864 47.9636 52.2887V29.798C49.0239 30.0307 50.3972 30.0475 51.2277 28.9291C52.5397 27.1575 52.3437 24.4956 50.7914 23.0019ZM49.5863 27.4141C49.3672 27.7013 48.2319 27.5444 47.325 27.1029C46.9952 26.9414 46.6117 26.9796 46.3157 27.1982C46.0155 27.4168 45.8324 27.792 45.8324 28.1906V52.2865C45.8324 52.6761 45.5639 52.9919 45.2362 52.9919H33.2547V33.3771C33.2547 32.7216 32.7778 32.1898 32.1901 32.1898H21.1816C20.5939 32.1898 20.117 32.7216 20.117 33.3771V52.9919H8.13552C7.80758 52.9919 7.53929 52.6761 7.53929 52.2865V28.1903C7.53929 27.789 7.35816 27.4141 7.05603 27.1955C6.75584 26.9794 6.37459 26.946 6.04446 27.1026C5.23959 27.4993 4.01549 27.7225 3.78542 27.4116C3.20405 26.6278 3.28731 25.4548 3.97288 24.7923L25.6299 3.86909C26.2219 3.29918 27.0799 3.29918 27.672 3.86909C27.7484 3.94512 27.8361 4.00675 27.9276 4.05209L49.3971 24.7972C50.0846 25.4573 50.1674 26.6302 49.5863 27.4141Z" fill="#61DAFB"/>
</g>
<defs>
<clipPath id="clip0_2_24">
<rect width="51.6129" height="56" fill="white" transform="translate(0.732712)"/>
</clipPath>
</defs>
</svg>
