<svg width="53" height="56" viewBox="0 0 53 56" fill="none" xmlns="http://www.w3.org/2000/svg">
<g clip-path="url(#clip0_2_134)">
<path d="M50.7913 23.002L29.1346 2.07846C29.062 2.0095 28.9749 1.95031 28.8768 1.90496C27.4908 0.732018 25.5762 0.786595 24.2392 2.07846L2.58219 22.9995C1.0299 24.498 0.833922 27.1572 2.14786 28.9291C2.97829 30.0499 4.35578 30.0356 5.41214 29.798V52.2887C5.41214 53.9865 6.63429 55.3687 8.13763 55.3687H21.1835C21.7712 55.3687 22.2484 54.8366 22.2484 54.1814V34.5666H31.1275V54.1814C31.1275 54.8366 31.6045 55.3687 32.1919 55.3687H45.2381C46.7414 55.3687 47.9636 53.9865 47.9636 52.2887V29.798C49.0238 30.0307 50.3972 30.0475 51.2276 28.9291C52.5396 27.1575 52.3436 24.4956 50.7913 23.002ZM49.5862 27.4141C49.3671 27.7014 48.2319 27.5444 47.325 27.1029C46.9951 26.9414 46.6116 26.9797 46.3156 27.1982C46.0154 27.4168 45.8323 27.792 45.8323 28.1906V52.2865C45.8323 52.6761 45.5638 52.9919 45.2361 52.9919H33.2546V33.3771C33.2546 32.7217 32.7777 32.1898 32.19 32.1898H21.1816C20.5939 32.1898 20.1169 32.7217 20.1169 33.3771V52.9919H8.13545C7.80751 52.9919 7.53922 52.6761 7.53922 52.2865V28.1903C7.53922 27.789 7.35809 27.4141 7.05596 27.1955C6.75577 26.9794 6.37452 26.946 6.04439 27.1027C5.23952 27.4993 4.01542 27.7225 3.78536 27.4116C3.20398 26.6278 3.28724 25.4548 3.97282 24.7923L25.6298 3.86911C26.2219 3.2992 27.0798 3.2992 27.6719 3.86911C27.7484 3.94513 27.836 4.00676 27.9275 4.0521L49.397 24.7972C50.0846 25.4573 50.1673 26.6302 49.5862 27.4141Z" fill="#61DAFB"/>
</g>
<defs>
<clipPath id="clip0_2_134">
<rect width="51.6129" height="56" fill="white" transform="translate(0.732666)"/>
</clipPath>
</defs>
</svg>
