<svg width="55" height="61" viewBox="0 0 55 61" fill="none" xmlns="http://www.w3.org/2000/svg">
<path d="M14.2535 15.25C14.2535 13.8463 15.2507 12.7083 16.4808 12.7083H38.7542C39.9844 12.7083 40.9816 13.8463 40.9816 15.25C40.9816 16.6537 39.9844 17.7917 38.7542 17.7917H16.4808C15.2507 17.7917 14.2535 16.6537 14.2535 15.25Z" fill="#61DAFB"/>
<path d="M16.4808 23.0598C15.2507 23.0598 14.2535 24.1977 14.2535 25.6015C14.2535 27.0053 15.2507 28.1432 16.4808 28.1432H38.7542C39.9844 28.1432 40.9816 27.0053 40.9816 25.6015C40.9816 24.1977 39.9844 23.0598 38.7542 23.0598H16.4808Z" fill="#61DAFB"/>
<path d="M14.2535 35.7682C14.2535 34.3644 15.2507 33.2265 16.4808 33.2265H25.3902C26.6203 33.2265 27.6175 34.3644 27.6175 35.7682C27.6175 37.172 26.6203 38.3099 25.3902 38.3099H16.4808C15.2507 38.3099 14.2535 37.172 14.2535 35.7682Z" fill="#61DAFB"/>
<path fill-rule="evenodd" clip-rule="evenodd" d="M5.34409 10.1667C5.34409 5.95551 8.33574 2.54167 12.0261 2.54167H43.2089C46.8994 2.54167 49.8909 5.95551 49.8909 10.1667V50.8333C49.8909 55.0446 46.8994 58.4583 43.2089 58.4583H12.0261C8.33574 58.4583 5.34409 55.0446 5.34409 50.8333V10.1667ZM12.0261 7.625H43.2089C44.4391 7.625 45.4363 8.76293 45.4363 10.1667V50.8333C45.4363 52.2371 44.4391 53.375 43.2089 53.375H12.0261C10.796 53.375 9.79877 52.2371 9.79877 50.8333V10.1667C9.79877 8.76295 10.796 7.625 12.0261 7.625Z" fill="#61DAFB"/>
</svg>
