<svg width="55" height="61" viewBox="0 0 55 61" fill="none" xmlns="http://www.w3.org/2000/svg">
<path d="M14.2534 15.25C14.2534 13.8463 15.2506 12.7083 16.4808 12.7083H38.7542C39.9843 12.7083 40.9815 13.8463 40.9815 15.25C40.9815 16.6537 39.9843 17.7916 38.7542 17.7916H16.4808C15.2506 17.7916 14.2534 16.6537 14.2534 15.25Z" fill="#61DAFB"/>
<path d="M16.4808 23.0598C15.2506 23.0598 14.2534 24.1977 14.2534 25.6015C14.2534 27.0052 15.2506 28.1431 16.4808 28.1431H38.7542C39.9843 28.1431 40.9815 27.0052 40.9815 25.6015C40.9815 24.1977 39.9843 23.0598 38.7542 23.0598H16.4808Z" fill="#61DAFB"/>
<path d="M14.2534 35.7682C14.2534 34.3644 15.2506 33.2265 16.4808 33.2265H25.3901C26.6203 33.2265 27.6175 34.3644 27.6175 35.7682C27.6175 37.1719 26.6203 38.3098 25.3901 38.3098H16.4808C15.2506 38.3098 14.2534 37.1719 14.2534 35.7682Z" fill="#61DAFB"/>
<path fill-rule="evenodd" clip-rule="evenodd" d="M5.34412 10.1667C5.34412 5.95553 8.33577 2.54169 12.0261 2.54169H43.2089C46.8994 2.54169 49.891 5.95553 49.891 10.1667V50.8334C49.891 55.0446 46.8994 58.4584 43.2089 58.4584H12.0261C8.33577 58.4584 5.34412 55.0446 5.34412 50.8334V10.1667ZM12.0261 7.62502H43.2089C44.4391 7.62502 45.4363 8.76295 45.4363 10.1667V50.8334C45.4363 52.2371 44.4391 53.375 43.2089 53.375H12.0261C10.796 53.375 9.7988 52.2371 9.7988 50.8334V10.1667C9.7988 8.76297 10.796 7.62502 12.0261 7.62502Z" fill="#61DAFB"/>
</svg>
