<svg width="62" height="62" viewBox="0 0 62 62" fill="none" xmlns="http://www.w3.org/2000/svg">
<path fill-rule="evenodd" clip-rule="evenodd" d="M33.9222 0.00010825C35.1118 0.0119345 36.0666 0.989789 36.0549 2.18421L36.0261 5.09676C36.0261 5.10273 36.026 5.1087 36.0259 5.11467C35.9762 7.85695 33.7766 10.093 31 10.093H30.9138C30.5519 10.093 30.2245 10.394 30.2245 10.814C30.2245 11.2051 30.5518 11.5341 30.9412 11.5349H39.6164C47.0093 11.5349 52.7446 13.0062 56.5774 16.8544C60.4102 20.7026 61.8756 26.4611 61.8756 33.8837V39.6512C61.8756 47.0738 60.4102 52.8323 56.5774 56.6805C52.7446 60.5287 47.0093 62 39.6164 62H22.3836C14.9907 62 9.25537 60.5287 5.42258 56.6805C1.58979 52.8323 0.12442 47.0738 0.12442 39.6512V33.8837C0.12442 26.4611 1.58979 20.7026 5.42258 16.8544C9.25537 13.0062 14.9907 11.5349 22.3836 11.5349H25.9675C25.9338 11.2994 25.9163 11.0586 25.9163 10.814C25.9163 8.06185 28.1164 5.76744 30.9138 5.76744H31C31.3809 5.76744 31.7075 5.46873 31.7183 5.04222L31.7469 2.14138C31.7586 0.946962 32.7326 -0.011718 33.9222 0.00010825ZM30.9389 15.8605H22.3836C15.4156 15.8605 11.0985 17.2729 8.46895 19.913C5.83941 22.5532 4.43264 26.8877 4.43264 33.8837V39.6512C4.43264 46.6472 5.83941 50.9817 8.46895 53.6218C11.0985 56.262 15.4156 57.6744 22.3836 57.6744H39.6164C46.5843 57.6744 50.9015 56.262 53.531 53.6218C56.1606 50.9817 57.5673 46.6472 57.5673 39.6512V33.8837C57.5673 26.8877 56.1606 22.5532 53.531 19.913C50.9015 17.2729 46.5843 15.8605 39.6164 15.8605L30.9426 15.8605C30.9413 15.8605 30.9401 15.8605 30.9389 15.8605ZM41.0525 28.8949C42.2422 28.8949 43.2066 29.8632 43.2066 31.0577V31.1154C43.2066 32.3098 42.2422 33.2781 41.0525 33.2781C39.8628 33.2781 38.8984 32.3098 38.8984 31.1154V31.0577C38.8984 29.8632 39.8628 28.8949 41.0525 28.8949ZM25.5439 30.7972C26.3852 31.6418 26.3852 33.0112 25.5439 33.8558L22.6871 36.7241L25.6302 39.6791C26.4714 40.5237 26.4714 41.8931 25.6302 42.7377C24.7889 43.5823 23.425 43.5823 22.5838 42.7377L19.6408 39.7828L16.7839 42.6512C15.9426 43.4958 14.5787 43.4958 13.7375 42.6512C12.8963 41.8066 12.8963 40.4372 13.7375 39.5925L16.5944 36.7241L13.8238 33.9424C12.9825 33.0977 12.9825 31.7283 13.8238 30.8837C14.665 30.0391 16.0289 30.0391 16.8701 30.8837L19.6408 33.6655L22.4975 30.7972C23.3388 29.9526 24.7027 29.9526 25.5439 30.7972ZM35.4231 38.9302H35.3944C34.2047 38.9302 33.2403 37.9619 33.2403 36.7674C33.2403 35.573 34.2047 34.6047 35.3944 34.6047H35.4231C36.6128 34.6047 37.5772 35.573 37.5772 36.7674C37.5772 37.9619 36.6128 38.9302 35.4231 38.9302ZM44.5565 36.7674C44.5565 35.573 45.521 34.6047 46.7106 34.6047H46.7394C47.929 34.6047 48.8935 35.573 48.8935 36.7674C48.8935 37.9619 47.929 38.9302 46.7394 38.9302H46.7106C45.521 38.9302 44.5565 37.9619 44.5565 36.7674ZM41.0525 40.2568C42.2422 40.2568 43.2066 41.2251 43.2066 42.4195V42.4772C43.2066 43.6717 42.2422 44.64 41.0525 44.64C39.8628 44.64 38.8984 43.6717 38.8984 42.4772V42.4195C38.8984 41.2251 39.8628 40.2568 41.0525 40.2568Z" fill="#61DAFB"/>
</svg>
