<svg width="66" height="67" viewBox="0 0 66 67" fill="none" xmlns="http://www.w3.org/2000/svg">
<path fill-rule="evenodd" clip-rule="evenodd" d="M33 5.58333C17.9416 5.58333 5.73425 18.0819 5.73425 33.5C5.73425 48.9179 17.9416 61.4167 33 61.4167C48.0586 61.4167 60.2657 48.9179 60.2657 33.5C60.2657 18.0819 48.0586 5.58333 33 5.58333ZM33 55.8333C20.9726 55.8333 11.1874 45.8146 11.1874 33.5C11.1874 21.1854 20.9726 11.1667 33 11.1667C45.0276 11.1667 54.8126 21.1854 54.8126 33.5C54.8126 45.8146 45.0276 55.8333 33 55.8333ZM36.4142 22.3333C36.4142 24.3574 34.9749 25.8229 33.0277 25.8229C31.0018 25.8229 29.5977 24.3574 29.5977 22.2946C29.5977 20.312 31.0398 18.8437 33.0277 18.8437C34.9749 18.8437 36.4142 20.312 36.4142 22.3333ZM30.2794 30.7083H35.7325V47.4583H30.2794V30.7083Z" fill="#61DAFB"/>
</svg>
